<?xml version="1.0" encoding="utf-8"?>
<!-- Generator: Adobe Illustrator 27.5.0, SVG Export Plug-In . SVG Version: 6.00 Build 0)  -->
<svg version="1.1" xmlns="http://www.w3.org/2000/svg" xmlns:xlink="http://www.w3.org/1999/xlink" x="0px" y="0px"
	 viewBox="0 0 750 500" style="enable-background:new 0 0 750 500;" xml:space="preserve">
<g id="BACKGROUND">
	<rect style="fill:#FFFFFF;" width="750" height="500"/>
</g>
<g id="OBJECTS">
	<path style="fill:#FFC0A9;" d="M451.489,193.853c-0.172-0.281-0.392-0.563-0.64-0.803c-1.588-1.538-4.122-1.498-5.66,0.09
		l-0.802,0.828c-0.733,0.757-1.047,1.337-1.273,1.91c-0.223,0.566-0.289,1.135-0.389,1.785c-0.095,0.643-0.291,1.346-0.774,1.872
		c-0.483,0.524-1.135,0.919-1.786,1.322c-1.322,0.798-2.879,1.391-4.536,1.833c-0.825,0.231-1.683,0.396-2.553,0.546
		c-0.872,0.147-1.757,0.265-2.654,0.349c-3.596,0.339-7.321,0.274-11.039,0.139c-1.834-0.089-3.67-0.173-5.501-0.302
		c-0.556-1.65-1.098-3.306-1.671-4.949c-1.074-3.161-2.193-6.305-3.321-9.446c-0.555-1.574-1.134-3.138-1.714-4.703l-1.752-4.69
		l-1.808-4.676l-0.933-2.339l-1.068-2.551c-2.002-4.848-7.539-7.114-12.387-5.112c-4.848,2.002-7.155,7.555-5.152,12.403l0.161,0.39
		l1.799,4.356l1.95,4.589l1.996,4.579c0.669,1.525,1.338,3.051,2.031,4.567c1.367,3.04,2.742,6.077,4.159,9.098
		c1.393,3.03,2.82,6.048,4.267,9.055l0.422,0.88c1.182,2.445,3.677,4.14,6.576,4.162c0.699,0.005,1.184-0.013,1.757-0.029
		l1.636-0.067c1.083-0.051,2.156-0.123,3.228-0.232c2.143-0.2,4.277-0.466,6.404-0.86c2.13-0.363,4.249-0.866,6.363-1.433
		c2.111-0.587,4.214-1.267,6.299-2.068c1.042-0.408,2.082-0.836,3.116-1.298c1.035-0.459,2.055-0.989,3.078-1.525
		c2.036-1.088,4.036-2.401,5.908-4.017c0.941-0.805,1.785-1.754,2.633-2.725c0.844-0.971,1.808-1.916,2.639-3.046
		c0.828-1.123,1.451-2.45,1.662-3.835C452.371,196.52,452.241,195.096,451.489,193.853z"/>
	<g>
		<g style="opacity:0.7;">
			<path style="fill:#FFD3C6;" d="M287.971,395.079c-1.224-4.69-4.323-9.171-8.908-10.742c-4.216-1.445-8.869-0.234-12.996,1.448
				c-4.127,1.682-8.151,3.856-12.574,4.4c-4.423,0.544-9.516-1.048-11.44-5.067c-1.257-2.624-0.934-5.686-1.093-8.591
				c-0.159-2.905-1.138-6.177-3.792-7.37c-3.064-1.378-6.466,0.707-9.349,2.434c-8.345,5-18.129,7.566-27.854,7.306
				c5.05,8.49,10.446,16.775,16.17,24.827c2.535,3.566,6.084,7.504,10.399,6.779c4.896-0.822,7.142-7.158,11.914-8.528
				c3.873-1.112,7.863,1.515,10.431,4.621c2.568,3.105,4.436,6.855,7.596,9.355c4.621,3.655,11.236,3.889,16.842,2.073
				c4.084-1.322,11.865-4.63,14.366-8.31C290.02,406.279,289.013,399.074,287.971,395.079z"/>
			<path style="fill:#FFC4B4;" d="M216.137,403.723c-5.202-7.319-10.119-14.838-14.766-22.521
				c4.668,3.124,10.348,3.909,16.177,4.211c4.091,0.212,8.295,0.195,12.268,1.316c4.312,1.217,7.641,4.278,11.397,6.58
				c8.667,5.31,17.809,6.384,27.579,8.261c7.064,1.357,13.53,3.742,19.083,7.819c-0.064,0.108-0.12,0.224-0.189,0.325
				c-2.501,3.68-10.282,6.987-14.366,8.31c-5.605,1.815-12.22,1.581-16.842-2.073c-3.161-2.5-5.029-6.249-7.596-9.355
				c-2.568-3.105-6.558-5.732-10.431-4.621c-4.772,1.37-7.018,7.705-11.914,8.528C222.22,411.227,218.672,407.29,216.137,403.723z"
				/>
		</g>
		<g>
			<path style="fill:#DEECFF;" d="M367.238,414.445c-7.579,0.608-15.817-1.669-20.511-7.651c-4.316-5.499-4.924-13.017-4.562-19.998
				c0.361-6.981,1.505-14.064,0.027-20.897c-1.477-6.833-6.463-13.555-13.411-14.332c-4.536-0.507-8.904,1.552-13.29,2.815
				s-9.737,1.503-12.875-1.813c-3.623-3.828-2.29-9.944-1.219-15.105c3.099-14.942,1.85-30.76-3.554-45.032
				c15.184,3.099,30.242,6.816,45.123,11.138c6.592,1.915,14.256,5.14,15.41,11.906c1.309,7.677-6.917,14.275-6.483,22.051
				c0.352,6.311,6.303,10.865,12.228,13.066c5.925,2.201,12.444,3.033,17.778,6.424c7.799,4.959,11.56,14.637,11.764,23.878
				c0.149,6.733-0.734,19.966-4.894,25.57C384.887,411.7,373.694,413.927,367.238,414.445z"/>
			<path style="fill:#BDDAFF;" d="M342.966,303.572c-13.526-3.929-27.204-7.331-40.984-10.249
				c7.037,5.303,11.131,13.312,14.588,21.79c2.426,5.95,4.571,12.187,8.282,17.494c4.028,5.759,10.281,9.11,15.63,13.487
				c12.34,10.098,18.648,23.086,26.472,36.591c5.656,9.764,12.526,18.111,21.432,24.232c0.127-0.15,0.269-0.293,0.384-0.448
				c4.16-5.605,5.043-18.837,4.894-25.57c-0.204-9.241-3.965-18.919-11.764-23.878c-5.334-3.392-11.853-4.223-17.778-6.424
				c-5.925-2.201-11.876-6.755-12.228-13.067c-0.434-7.776,7.792-14.373,6.483-22.05
				C357.222,308.711,349.558,305.487,342.966,303.572z"/>
		</g>
		<g>
			<path style="fill:#DEECFF;" d="M641.171,417.884c6.937,0.556,14.478-1.528,18.774-7.003c3.951-5.034,4.507-11.915,4.176-18.305
				c-0.331-6.39-1.377-12.873-0.025-19.128c1.352-6.254,5.916-12.408,12.275-13.118c4.152-0.464,8.15,1.42,12.165,2.577
				c4.014,1.157,8.913,1.375,11.785-1.659c3.316-3.504,2.096-9.102,1.116-13.826c-2.837-13.677-1.694-28.156,3.253-41.219
				c-13.898,2.836-27.681,6.238-41.303,10.195c-6.034,1.753-13.049,4.704-14.105,10.898c-1.198,7.027,6.331,13.066,5.934,20.184
				c-0.323,5.777-5.769,9.945-11.193,11.96c-5.424,2.015-11.391,2.776-16.273,5.88c-7.139,4.539-10.581,13.398-10.768,21.856
				c-0.136,6.163,0.672,18.275,4.48,23.405C625.016,415.371,635.261,417.41,641.171,417.884z"/>
			<path style="fill:#BDDAFF;" d="M663.388,316.398c12.381-3.596,24.9-6.71,37.513-9.382c-6.441,4.854-10.189,12.185-13.353,19.945
				c-2.22,5.447-4.184,11.156-7.581,16.013c-3.687,5.271-9.411,8.339-14.306,12.345c-11.295,9.243-17.07,21.131-24.231,33.493
				c-5.177,8.937-11.465,16.578-19.617,22.18c-0.117-0.137-0.246-0.268-0.351-0.41c-3.808-5.13-4.616-17.242-4.48-23.405
				c0.187-8.458,3.629-17.317,10.768-21.856c4.882-3.104,10.849-3.866,16.273-5.88c5.424-2.015,10.871-6.184,11.193-11.96
				c0.397-7.117-7.132-13.156-5.934-20.184C650.339,321.102,657.354,318.15,663.388,316.398z"/>
		</g>
		<g>
			<g>
				<path style="fill:#FFDAA1;" d="M322.683,375.493c-7.198-11.34-17.594-20.22-27.829-28.919
					c-0.891,9.809-1.782,19.685-0.871,29.492c0.911,9.807,3.741,19.65,9.641,27.537c4.341,5.803,19.392,17.355,25.779,8.39
					C336.076,402.629,327.846,383.626,322.683,375.493z"/>
				<path style="fill:#FFEEBB;" d="M329.404,411.993c-0.681,0.956-1.466,1.667-2.321,2.188c-6.641-6.981-11.05-16.351-15.504-24.64
					c-7.186-13.377-12.175-27.616-15.92-42.283c9.973,8.482,20.014,17.191,27.024,28.234
					C327.846,383.626,336.076,402.629,329.404,411.993z"/>
			</g>
			<g>
				<path style="fill:#FFDAA1;" d="M293.794,388.748c-12.322-5.346-25.91-6.863-39.262-8.319c4.767,8.619,9.572,17.293,15.829,24.9
					c6.258,7.606,14.123,14.165,23.433,17.382c6.85,2.367,25.79,3.482,26.046-7.523
					C320.107,403.693,302.631,392.582,293.794,388.748z"/>
				<path style="fill:#FFEEBB;" d="M319.839,415.187c-0.027,1.174-0.278,2.202-0.693,3.114c-9.414-2.051-18.322-7.332-26.66-11.694
					c-13.455-7.039-25.575-16.026-36.905-26.063c13.014,1.424,26.213,2.998,38.212,8.204
					C302.631,392.582,320.107,403.693,319.839,415.187z"/>
			</g>
		</g>
		<g>
			<path style="fill:#FFDAA1;" d="M678.363,385.104c9.835-9.148,22.14-15.107,34.244-20.93c-1.622,9.715-3.26,19.495-6.625,28.752
				c-3.365,9.257-8.594,18.062-16.299,24.198c-5.669,4.514-23.154,11.879-27.064,1.589
				C658.536,407.965,671.309,391.665,678.363,385.104z"/>
			<path style="fill:#FFEEBB;" d="M662.619,418.713c0.417,1.098,0.996,1.984,1.691,2.705c8.192-5.072,14.83-13.02,21.238-19.911
				c10.339-11.121,18.771-23.633,26.107-36.874c-11.795,5.68-23.715,11.563-33.293,20.472
				C671.309,391.665,658.536,407.965,662.619,418.713z"/>
		</g>
	</g>
	<path style="fill:#FFEEBB;" d="M750,433.443H131.161c-6.235,0-11.29-5.054-11.29-11.289l0,0c0-6.235,5.054-11.289,11.29-11.289H750
		V433.443z"/>
	<g>
		<path style="fill:#FFD3C6;" d="M701.781,107.17c14.727,0,26.759,11.938,26.759,26.665c0,14.727-11.891,26.665-26.618,26.665
			c-7.434,0-14.318-3.045-19.151-7.953L675,168.205v-36.226C675,118.125,687.679,107.17,701.781,107.17z"/>
		<circle style="fill:none;stroke:#FFFFFF;stroke-miterlimit:10;" cx="701.77" cy="133.5" r="20"/>
		
			<rect x="691.073" y="126.097" style="fill:none;stroke:#FFFFFF;stroke-width:1.0611;stroke-miterlimit:10;" width="21.393" height="14.805"/>
		<polyline style="fill:none;stroke:#FFFFFF;stroke-width:1.0611;stroke-miterlimit:10;" points="691.073,126.097 701.77,135.78 
			712.466,126.097 		"/>
	</g>
	<g>
		<path style="opacity:0.8;fill:#D3E3F8;" d="M304.052,77.17c0.003-0.044,0.007-0.088,0.01-0.131
			c0.276-1.31,0.861-2.465,1.754-3.464c0.506-0.43,1.012-0.86,1.518-1.29c1.104-0.699,2.308-1.084,3.612-1.157
			c0.984-0.088,1.919,0.065,2.803,0.458c0.969,0.247,1.82,0.726,2.554,1.439c0.426,0.355,0.782,0.756,1.079,1.195
			c0.295-0.929,0.765-1.77,1.43-2.513c0.467-0.397,0.934-0.794,1.402-1.191c1.019-0.645,2.131-1.001,3.335-1.068
			c0.909-0.081,1.772,0.06,2.588,0.423c0.587,0.149,1.122,0.401,1.615,0.735c0.026-0.346,0.052-0.692,0.078-1.038
			c0.26-1.236,0.812-2.325,1.655-3.267c0.477-0.405,0.954-0.811,1.431-1.216c1.041-0.659,2.177-1.023,3.406-1.091
			c0.928-0.083,1.81,0.061,2.644,0.432c0.914,0.233,1.716,0.685,2.409,1.357c0.741,0.618,1.275,1.369,1.602,2.254
			c0.456,0.791,0.691,1.652,0.706,2.584c-0.023,0.305-0.046,0.609-0.069,0.914c0.535-0.179,1.093-0.29,1.675-0.322
			c0.836-0.075,1.63,0.055,2.382,0.389c0.823,0.21,1.546,0.617,2.17,1.223c0.667,0.557,1.148,1.234,1.443,2.03
			c0.129,0.224,0.231,0.456,0.321,0.693c0.713-0.323,1.469-0.512,2.27-0.557c0.836-0.075,1.63,0.055,2.382,0.389
			c0.823,0.21,1.546,0.617,2.17,1.223c0.21,0.175,0.395,0.367,0.567,0.567H304.052z"/>
		<path style="fill:#D3E3F8;" d="M643.544,69.561c0.136-0.181,0.28-0.359,0.434-0.531c0.567-0.482,1.134-0.963,1.701-1.445
			c1.237-0.783,2.586-1.215,4.047-1.297c1.103-0.099,2.15,0.072,3.141,0.513c0.961,0.245,1.813,0.706,2.568,1.36
			c0.007-0.095,0.014-0.19,0.021-0.285c0.235-1.115,0.732-2.097,1.493-2.947c0.43-0.366,0.861-0.732,1.292-1.097
			c0.939-0.594,1.964-0.923,3.073-0.985c0.838-0.075,1.633,0.055,2.385,0.39c0.305,0.078,0.592,0.192,0.87,0.324
			c0.403-3.557,3.44-6.872,7.177-6.872c4.12,0,7.797,2.954,8.021,7.222c0.042,0.806-0.067,1.615-0.293,2.395
			c0.142-0.018,0.282-0.043,0.428-0.051c0.814-0.073,1.587,0.053,2.318,0.379c0.801,0.204,1.505,0.601,2.112,1.19
			c0.58,0.484,1.007,1.066,1.298,1.737H643.544z"/>
		<path style="opacity:0.5;fill:#D3E3F8;" d="M384.039,53.618h-25.422c0.29-1.091,0.804-2.069,1.567-2.922
			c0.482-0.41,0.965-0.819,1.447-1.229c1.052-0.666,2.2-1.034,3.442-1.103c0.938-0.084,1.829,0.062,2.672,0.437
			c0.143,0.036,0.278,0.088,0.415,0.135c0.191-2.826,2.585-5.53,5.544-5.53c3.167,0,5.994,2.271,6.166,5.552
			c0.04,0.76-0.088,1.526-0.353,2.246c0.007,0,0.013-0.001,0.02-0.001C381.646,51.203,383.155,52.218,384.039,53.618z"/>
		<g style="opacity:0.7;">
			<path style="fill:#D3E3F8;" d="M247.578,265.117c-0.173-0.236-0.347-0.471-0.546-0.694c-0.6-0.51-1.2-1.019-1.8-1.529
				c-1.309-0.828-2.737-1.286-4.283-1.372c-1.167-0.104-2.275,0.077-3.324,0.543c-1.057,0.269-1.99,0.783-2.811,1.52
				c-0.261-0.393-0.546-0.774-0.869-1.135c-0.656-0.558-1.313-1.116-1.97-1.673c-1.432-0.907-2.995-1.407-4.687-1.502
				c-1.277-0.114-2.49,0.084-3.638,0.594c-0.905,0.23-1.728,0.624-2.476,1.168c-0.137-0.806-0.46-1.582-1.043-2.174
				c-0.795-0.807-1.872-1.451-3.041-1.451c-0.61,0-1.207,0.092-1.765,0.292c0.095-0.892,0.069-1.79-0.114-2.696
				c-0.325-1.544-1.014-2.905-2.068-4.082c-0.063-0.056-0.126-0.111-0.189-0.167c-0.589-0.5-1.178-1-1.766-1.501
				c-0.676-0.317-1.352-0.634-2.029-0.951c-0.725-0.132-1.45-0.264-2.174-0.396c-1.145-0.102-2.233,0.075-3.262,0.533
				c-0.762,0.161-1.434,0.501-2.015,1.021c-0.707,0.359-1.276,0.872-1.707,1.537c-0.578,0.524-0.986,1.156-1.226,1.898
				c-0.563,0.976-0.853,2.039-0.871,3.189c-0.002,0.079-0.003,0.157-0.005,0.236c-0.06,1.229,0.133,2.405,0.557,3.533
				c-0.643-0.23-1.313-0.375-2.017-0.415c-0.941-0.084-1.835,0.062-2.681,0.438c-0.927,0.236-1.741,0.695-2.443,1.376
				c-0.751,0.627-1.293,1.389-1.624,2.285c-0.286,0.496-0.477,1.023-0.591,1.575H247.578z"/>
		</g>
	</g>
	<g>
		<g>
			<rect x="397.607" y="259.958" style="fill:#FFFFFF;" width="221.921" height="151.601"/>
			<rect x="392.222" y="259.958" style="fill:#E25A1E;" width="24.624" height="151.601"/>
			
				<rect x="600.289" y="259.958" transform="matrix(-1 -1.224647e-16 1.224647e-16 -1 1225.2023 671.5165)" style="fill:#E25A1E;" width="24.624" height="151.601"/>
		</g>
		<g>
			<polygon style="fill:#BDD6F5;" points="610.953,273.302 508.568,317 406.182,273.302 406.182,65.247 610.953,65.247 			"/>
			<g>
				<text transform="matrix(1 0 0 1 436.459 130.4608)" style="fill:#FFFFFF; font-family:'OstrichSans-Medium'; font-size:43px;">@hello.com</text>
				<line style="fill:none;stroke:#FFFFFF;stroke-miterlimit:10;" x1="437" y1="137.5" x2="578" y2="137.5"/>
				<line style="fill:none;stroke:#FFFFFF;stroke-miterlimit:10;" x1="437" y1="141.5" x2="578" y2="141.5"/>
				<line style="fill:none;stroke:#FFFFFF;stroke-miterlimit:10;" x1="437" y1="163.5" x2="578" y2="163.5"/>
				<line style="fill:none;stroke:#FFFFFF;stroke-miterlimit:10;" x1="437" y1="167.5" x2="578" y2="167.5"/>
				<line style="fill:none;stroke:#FFFFFF;stroke-miterlimit:10;" x1="437" y1="171.5" x2="578" y2="171.5"/>
				<line style="fill:none;stroke:#FFFFFF;stroke-miterlimit:10;" x1="437" y1="175.5" x2="578" y2="175.5"/>
				<line style="fill:none;stroke:#FFFFFF;stroke-miterlimit:10;" x1="437" y1="179.5" x2="578" y2="179.5"/>
				<line style="fill:none;stroke:#FFFFFF;stroke-miterlimit:10;" x1="437" y1="183.5" x2="457" y2="183.5"/>
				<line style="fill:none;stroke:#FFFFFF;stroke-miterlimit:10;" x1="437" y1="187.5" x2="578" y2="187.5"/>
				<line style="fill:none;stroke:#FFFFFF;stroke-miterlimit:10;" x1="437" y1="191.5" x2="578" y2="191.5"/>
				<line style="fill:none;stroke:#FFFFFF;stroke-miterlimit:10;" x1="437" y1="195.5" x2="578" y2="195.5"/>
				<line style="fill:none;stroke:#FFFFFF;stroke-miterlimit:10;" x1="437" y1="199.5" x2="578" y2="199.5"/>
				<line style="fill:none;stroke:#FFFFFF;stroke-miterlimit:10;" x1="437" y1="203.5" x2="578" y2="203.5"/>
				<line style="fill:none;stroke:#FFFFFF;stroke-miterlimit:10;" x1="437" y1="207.5" x2="578" y2="207.5"/>
				<line style="fill:none;stroke:#FFFFFF;stroke-miterlimit:10;" x1="437" y1="211.5" x2="482" y2="211.5"/>
				<line style="fill:none;stroke:#FFFFFF;stroke-miterlimit:10;" x1="437" y1="256.5" x2="507" y2="256.5"/>
				<g>
					<line style="fill:none;stroke:#FFFFFF;stroke-miterlimit:10;" x1="437" y1="90.5" x2="578" y2="90.5"/>
					<line style="fill:none;stroke:#FFFFFF;stroke-miterlimit:10;" x1="437" y1="94.5" x2="578" y2="94.5"/>
				</g>
				
					<rect x="436.908" y="221" style="fill:none;stroke:#FFFFFF;stroke-width:0.6656;stroke-miterlimit:10;" width="43.879" height="29"/>
				
					<rect x="485.435" y="221" style="fill:none;stroke:#FFFFFF;stroke-width:0.6656;stroke-miterlimit:10;" width="43.879" height="29"/>
				
					<rect x="533.961" y="221" style="fill:none;stroke:#FFFFFF;stroke-width:0.6656;stroke-miterlimit:10;" width="43.879" height="29"/>
				<rect x="436.84" y="150.825" style="fill:none;stroke:#FFFFFF;stroke-miterlimit:10;" width="141" height="6.215"/>
			</g>
		</g>
	</g>
	<g>
		<g>
			<g>
				<path style="fill:#E89A49;" d="M649.191,399.301l0.834,7.883c0.316,2.989,2.996,5.156,5.985,4.84l17.936-1.897
					c1.569-0.166,2.489-1.847,1.783-3.258l0,0c-0.407-0.813-1.261-1.302-2.168-1.243l-1.636,0.141
					c-5.617,0.484-10.815-3.003-12.497-8.384l0,0L649.191,399.301z"/>
				<path style="fill:#E89A49;" d="M660.113,386.953c-0.06-1.845-0.09-3.695-0.189-5.538c-0.144-3.091-0.293-6.186-0.483-9.279
					l-16.256-1.252l0.344,1.642l2.331,10.725c0.378,1.791,0.814,3.577,1.221,5.366c0.411,1.789,0.577,3.633,1.022,5.419
					c0.86,3.575,1.195,7.466,2.002,11.065l0.503-0.291c1.672,2.241,3.474,3.85,5.937,3.166c1.998-0.555,3.563-2.399,3.626-4.368
					c0.116-3.72,0.113-7.417,0.061-11.115C660.222,390.644,660.166,388.799,660.113,386.953z"/>
			</g>
			<path style="fill:#FFC366;" d="M617.32,250.412l33.345-12.392c-0.039,3.918,1.064,16.005,1.689,21.908
				c1.238,11.706,4.246,36.61,6.408,57.191c2.162,20.581,2.882,58.415,2.882,58.415s-10.58,3.465-17.319,2.985
				c0,0-7.94-34.93-8.616-50.382c-0.676-15.453-5.933-33.188-12.465-55.622C621.065,265.03,618.488,257.517,617.32,250.412z"/>
			<g>
				<path style="fill:#E89A49;" d="M615.106,398.742l-0.152,7.925c-0.058,3.005,2.332,5.488,5.337,5.546l18.033,0.345
					c1.577,0.03,2.699-1.524,2.173-3.011l0,0c-0.303-0.857-1.089-1.449-1.997-1.503l-1.64-0.063
					c-5.634-0.217-10.358-4.323-11.359-9.871l0,0L615.106,398.742z"/>
				<path style="fill:#E89A49;" d="M627.583,385.627c0.27-1.827,0.569-3.652,0.8-5.483c0.409-3.067,0.813-6.139,1.176-9.216
					l-15.773-4.125l0.047,1.677l0.385,10.969c0.053,1.83,0.165,3.664,0.246,5.498c0.086,1.834-0.079,3.678,0.041,5.515
					c0.21,3.671,0.394,7.353,0.547,11.038l0,0.01c1.247,2.503,2.734,4.407,5.279,4.172c2.065-0.191,3.933-1.727,4.345-3.653
					c0.776-3.64,1.431-7.279,2.039-10.926C627.033,389.279,627.307,387.454,627.583,385.627z"/>
			</g>
			<path style="fill:#FFE79F;" d="M644.665,238.02c-0.861,4.261-1.679,17.727-2.18,24.534c-0.87,11.81-2.352,37.004-3.896,57.767
				c-1.544,20.763-7.606,58.347-7.606,58.347s-11.094,1.536-17.68-0.146c0,0-1.606-36.002,0.491-51.421
				c2.098-15.419,0.069-33.919-2.381-57.298c-0.825-7.873-2.349-16.799,0.393-24.157C614.547,238.287,644.665,238.02,644.665,238.02
				z"/>
		</g>
		<g>
			<path style="fill:#E89A49;" d="M645.276,177.041c0,0,0.584,1.11,1.607,3.053c1.052,1.977,2.569,4.817,4.462,8.163
				c1.886,3.345,4.141,7.216,6.695,11.137c1.287,1.949,2.62,3.936,4.044,5.794c1.417,1.848,2.919,3.618,4.332,4.967
				c0.7,0.675,1.381,1.196,1.847,1.508c0.229,0.154,0.38,0.228,0.408,0.273c0.019,0.026-0.02,0.024-0.069,0.046
				c-0.041-0.003-0.083,0.003-0.123,0.018c-0.1,0.003,0.213-0.002-0.226,0.007l0.031,0.002l0.062,0.004l0.123,0.007l0.246,0.014
				c-0.053,0.052,0.184,0.094,0.44,0.083c0.257-0.003,0.557-0.056,0.911-0.129c0.706-0.14,1.515-0.487,2.378-0.885
				c1.729-0.824,3.495-2.058,5.114-3.366c1.618-1.319,3.146-2.705,4.436-4.104c1.328-1.375,2.42-2.762,3.405-3.987
				c0.977-1.237,1.127-2.746,1.617-3.747c0.464-1.021,1.055-1.687,1.588-2.071c0.26-0.195,0.489-0.327,0.661-0.404
				c0.17-0.083,0.264-0.098,0.264-0.098l1.493-0.24c1.932-0.31,3.75,1.004,4.06,2.936c0.008,0.048,0.016,0.11,0.022,0.158
				c0,0,0.013,0.114,0.038,0.335c0.021,0.208,0.026,0.498-0.011,0.852c-0.062,0.713-0.357,1.648-1.066,2.64
				c-0.683,1.011-1.992,1.925-2.765,3.42c-0.766,1.506-1.714,3.16-2.744,5.008c-1.066,1.822-2.213,3.844-3.659,5.924
				c-1.447,2.083-3.137,4.255-5.436,6.385c-1.156,1.067-2.514,2.065-4.154,2.975c-0.815,0.459-1.736,0.843-2.732,1.177
				c-0.997,0.324-2.052,0.591-3.413,0.719l-0.245,0.031l-0.123,0.015l-0.061,0.008l-0.031,0.004l-0.287,0.004
				c-0.368-0.001-0.738-0.011-1.107-0.03c-0.702-0.059-1.392-0.159-2.012-0.304c-1.248-0.286-2.339-0.691-3.294-1.132
				c-1.898-0.89-3.413-1.905-4.759-2.929c-2.687-2.054-4.816-4.211-6.768-6.371c-1.94-2.161-3.699-4.307-5.295-6.431
				c-3.203-4.235-5.862-8.29-8.049-11.812c-2.174-3.527-3.867-6.518-5.021-8.644c-0.568-1.076-1.014-1.921-1.318-2.497
				c-0.311-0.608-0.476-0.932-0.476-0.932c-2.105-4.12-0.472-9.166,3.648-11.272c4.088-2.089,9.089-0.497,11.222,3.553
				L645.276,177.041z"/>
			<path style="fill:#4B78FF;" d="M677.466,207.191l7.565-2.34c0.639-0.198,1.132-0.708,1.307-1.353l5.094-18.768
				c0.403-1.485-0.99-2.83-2.46-2.376l-7.565,2.34c-0.638,0.197-1.132,0.708-1.307,1.353l-5.094,18.768
				C674.602,206.3,675.996,207.646,677.466,207.191z"/>
			<path style="fill:#193441;" d="M643.52,174.613c-1.897-3.275-5.722-4.974-12.926-3.497l-9.724-0.179
				c-7.159,1.669-9.902,2.28-14.586,6.015c-5.007,3.992-4.892,10.316-1.644,22.754c3.247,12.438,6.626,25.382,6.626,25.382
				s0.539,9.682-0.522,24.021c23.507,1.911,40.181-5.315,40.181-5.315l-1.371-12.435c-1.575-9.427-1.716-18.991-1.34-28.542
				c0.287-7.298-1.103-10.468-1.713-11.798C646.5,191.02,638.585,181.682,643.52,174.613z"/>
			<g>
				<defs>
					<path id="XMLID_16_" d="M655.954,139.245c-0.029-9.889-5.64-15.644-16.738-16.903c-6.614-0.75-13.118,2.169-17.297,7.351
						l-0.603,0.748c-3.455,4.283-5.118,11.59-4.187,17.014l6.082,12.615l-2.761,11.292c0,0,11.419,8.993,15.601,1.941l0.584-8.755
						c0,0,5.959,3.272,10.876,1.353C650.082,164.898,656.013,159.427,655.954,139.245z"/>
				</defs>
				<use xlink:href="#XMLID_16_"  style="overflow:visible;fill:#E89A49;"/>
				<clipPath id="XMLID_00000141457097900833666620000011218426511823570604_">
					<use xlink:href="#XMLID_16_"  style="overflow:visible;"/>
				</clipPath>
				<path style="clip-path:url(#XMLID_00000141457097900833666620000011218426511823570604_);fill:#FFAF8A;" d="M651.896,148.569
					c0.095,1.224,1.453,2.117,3.034,1.994c1.58-0.123,2.784-1.215,2.689-2.439c-0.095-1.224-1.453-2.117-3.034-1.994
					C653.005,146.253,651.801,147.345,651.896,148.569z"/>
			</g>
			<path style="fill:#FFFFFF;" d="M643.412,155.135c-0.583,0.067-0.895,0.77-0.508,1.211c1.135,1.292,2.857,2.027,4.695,1.814
				c1.805-0.209,3.292-1.282,4.112-2.757c0.305-0.549-0.109-1.216-0.733-1.143L643.412,155.135z"/>
			<path style="fill:#FFAF8A;" d="M637.489,150.011c-0.024,1.228,1.24,2.248,2.825,2.28c1.585,0.032,2.889-0.938,2.914-2.165
				c0.024-1.227-1.24-2.248-2.825-2.28C638.818,147.814,637.514,148.783,637.489,150.011z"/>
			<path style="fill:#193441;" d="M639.112,144.629c-0.093,0.746,0.437,1.426,1.183,1.519c0.746,0.093,1.426-0.437,1.519-1.183
				c0.093-0.746-0.437-1.427-1.183-1.519C639.886,143.353,639.205,143.883,639.112,144.629z"/>
			<path style="fill:#E89A49;" d="M621.189,184.372c0,0,0.695,1.324,1.912,3.641c1.225,2.366,3.088,5.71,5.344,9.669
				c2.278,3.933,5.003,8.499,8.147,12.925c1.56,2.203,3.283,4.35,4.972,6.122c0.838,0.866,1.693,1.618,2.345,2.08
				c0.319,0.231,0.571,0.368,0.654,0.433c0.042,0.034,0.033,0.046-0.028,0.061c-0.02,0.015-0.091,0.001-0.133,0.023l-0.009,0.003
				c-0.097,0.003,0.204-0.001-0.219,0.007l0.074,0.002l0.148,0.004l0.297,0.008c0.052,0.001,0.007,0.009,0.018,0.027l0.27-0.002
				c0.21-0.014,0.438-0.032,0.695-0.072c0.511-0.076,1.089-0.197,1.693-0.356c1.221-0.312,2.54-0.725,3.861-1.22
				c2.663-0.954,5.373-2.109,7.967-3.325c2.601-1.215,5.112-2.483,7.481-3.731c2.365-1.256,4.57-2.521,6.578-3.735
				c1-0.616,1.958-1.207,2.869-1.769c0.918-0.554,1.76-1.123,2.466-1.772c1.404-1.311,2.5-2.615,3.616-3.403
				c1.084-0.83,2.074-1.3,2.805-1.547c0.724-0.258,1.179-0.287,1.179-0.287l0.18-0.012c2.032-0.132,3.786,1.408,3.918,3.44
				c0.033,0.513-0.047,1.025-0.208,1.481c0,0-0.165,0.462-0.611,1.114c-0.439,0.663-1.171,1.521-2.292,2.364
				c-1.089,0.885-2.68,1.597-4.382,2.57c-0.847,0.492-1.661,1.132-2.497,1.842c-0.849,0.693-1.742,1.422-2.673,2.182
				c-1.878,1.521-3.913,3.169-6.065,4.912c-2.164,1.751-4.485,3.569-6.977,5.392c-2.501,1.815-5.141,3.664-8.104,5.378
				c-1.49,0.842-3.06,1.665-4.808,2.406c-0.882,0.361-1.815,0.703-2.837,1.007c-0.509,0.152-1.056,0.29-1.624,0.415l-0.904,0.169
				c-0.382,0.054-0.821,0.103-1.163,0.135l-0.296,0.029l-0.148,0.015l-0.074,0.007l-0.376,0.004
				c-0.436-0.007-0.905-0.01-1.315-0.057c-0.845-0.082-1.629-0.236-2.343-0.43c-1.43-0.391-2.621-0.918-3.669-1.469
				c-2.08-1.113-3.69-2.333-5.16-3.551c-2.902-2.439-5.169-4.973-7.267-7.431c-2.09-2.46-3.914-4.898-5.58-7.229
				c-1.671-2.326-3.155-4.562-4.482-6.642c-2.669-4.151-4.651-7.719-6.061-10.219c-0.705-1.25-1.215-2.261-1.579-2.952
				c-0.368-0.718-0.564-1.101-0.564-1.101c-2.108-4.118-0.479-9.166,3.639-11.274c4.091-2.094,9.099-0.501,11.232,3.557
				L621.189,184.372z"/>
			<path style="fill:#193441;" d="M651.963,142.831c-0.093,0.746,0.437,1.426,1.183,1.519c0.746,0.093,1.426-0.437,1.519-1.183
				c0.093-0.746-0.437-1.426-1.183-1.519C652.737,141.555,652.056,142.084,651.963,142.831z"/>
		</g>
		<path style="fill:#E25A1E;" d="M637.167,133.294c3.739,0.446,7.404-1.523,11.166-1.362c4.753,0.204,9.503,3.751,13.889,1.908
			c3.179-1.335,4.693-5.208,4.283-8.631c-0.594-4.948-4.788-9.238-9.721-9.943c-5.18-0.74-10.273,2.099-15.503,1.919
			c-2.965-0.102-5.839-1.175-8.805-1.213c-3.418-0.044-14.126,4.452-10.697,8.98c1.308,1.728,5.38,3.006,7.25,4.302
			C631.522,130.982,634.057,132.923,637.167,133.294z"/>
		<path style="fill:#E25A1E;" d="M626.393,146.159c-1.781,1.477-1.504-4.659-4.518-3.161c-2.37,1.179,0.394,8.365-1.624,10.934
			c-2.758-4.268-5.841-11.322-6.794-16.313c-0.924-4.844-0.85-10.163,1.784-14.332c2.635-4.169,8.427-6.574,12.751-4.202
			C636.63,123.822,631.453,141.963,626.393,146.159z"/>
		<path style="fill:#E25A1E;" d="M634.153,117.195c1.348-3.191,1.441-7.132-0.634-9.906c-1.936-2.589-5.557-3.685-8.681-2.851
			c-3.124,0.834-5.646,3.437-6.646,6.511c-1,3.075-0.546,6.535,0.967,9.392c1.336,2.524,5.09,6.833,8.352,5.602
			C630.145,124.949,633.13,119.617,634.153,117.195z"/>
	</g>
	<g>
		<g>
			<path style="fill:#FFC0A9;" d="M332.891,177.01c-4.706-2.321-10.402-0.388-12.723,4.318c-1.454,2.948-2.807,5.945-4.163,8.94
				c-1.332,3.007-2.657,6.017-3.931,9.051c-1.303,3.021-2.531,6.077-3.787,9.121c-0.69,1.691-1.364,3.389-2.036,5.089l-5.319,0.326
				c-3.633,0.213-7.282,0.457-10.92,0.516c-1.82,0.032-3.634,0.025-5.44-0.054c-1.811-0.048-3.6-0.212-5.38-0.401
				c-0.89-0.097-1.783-0.168-2.625-0.459c-0.839-0.283-1.634-0.738-2.418-1.131c-0.791-0.395-1.581-0.698-2.416-0.857
				c-0.842-0.146-1.691-0.191-2.728,0.133l-0.482,0.15c-0.391,0.124-0.77,0.308-1.124,0.553c-1.918,1.327-2.397,3.958-1.069,5.876
				c0.694,1.003,1.586,1.61,2.512,2.04c0.933,0.413,1.919,0.665,2.924,0.749c1.004,0.118,2.019,0.09,2.986,0.248
				c0.971,0.122,1.892,0.457,2.826,0.718c0.934,0.276,1.868,0.525,2.804,0.775l2.804,0.747c1.872,0.472,3.743,0.964,5.618,1.412
				c3.751,0.91,7.515,1.773,11.305,2.444c1.894,0.357,3.796,0.616,5.703,0.894l2.873,0.325c0.977,0.097,1.895,0.21,2.956,0.271
				c2.611,0.145,5.213-1.161,6.589-3.591l0.474-0.837c1.624-2.867,3.276-5.72,4.876-8.598c1.588-2.884,3.205-5.754,4.746-8.66
				c1.57-2.892,3.089-5.809,4.602-8.729c1.489-2.932,2.98-5.862,4.37-8.841C339.471,184.882,337.532,179.299,332.891,177.01z"/>
			<g>
				<g>
					<path style="fill:#FFC0A9;" d="M369.822,397.821l-0.265,8.129c-0.1,3.083,2.317,5.664,5.4,5.764l21.498,0.603
						c1.618,0.053,2.79-1.526,2.271-3.06l0,0c-0.299-0.883-1.098-1.502-2.028-1.569l-4.682-0.087
						c-5.777-0.3-10.568-4.579-11.518-10.285l0,0L369.822,397.821z"/>
					<path style="fill:#FFC0A9;" d="M382.665,386.812c0.2-1.884,0.43-3.769,0.59-5.655c0.29-3.162,0.575-6.328,0.818-9.499
						l-16.346-3.567l0.118,1.718l0.856,11.23c0.132,1.874,0.323,3.75,0.483,5.626c0.165,1.876,0.074,3.774,0.274,5.653
						c0.369,3.755,0.161,7.757,0.473,11.528l0.552-0.225c1.384,2.514,2.988,4.404,5.587,4.056c2.11-0.282,3.96-1.936,4.302-3.928
						c0.642-3.764,1.162-7.523,1.631-11.288C382.255,390.579,382.459,388.696,382.665,386.812z"/>
				</g>
				<path style="fill:#193441;" d="M358.439,251.945L392.25,242c0,0,0.653,17.94,0.454,23.648
					c-0.393,11.319-0.85,35.448-1.557,55.346c-0.706,19.898-5.314,77.823-5.314,77.823s-11.242,1.902-18.024,0.554
					c0,0-3.142-56.113-1.648-70.927c1.493-14.815-1.348-32.411-4.821-54.652C360.182,266.37,358.623,258.87,358.439,251.945z"/>
				<g>
					<path style="fill:#FFC0A9;" d="M338.2,398.053l-0.156,8.132c-0.059,3.084,2.393,5.632,5.477,5.691l21.504,0.354
						c1.618,0.031,2.769-1.564,2.23-3.09l0,0c-0.311-0.879-1.118-1.487-2.049-1.542l-4.684-0.065
						c-5.781-0.223-10.629-4.436-11.656-10.129l0,0L338.2,398.053z"/>
					<path style="fill:#FFC0A9;" d="M351.003,384.595c0.277-1.874,0.584-3.748,0.821-5.626c0.419-3.147,0.834-6.3,1.206-9.457
						l-16.186-4.233l0.048,1.721l0.395,11.256c0.055,1.878,0.169,3.76,0.253,5.642c0.088,1.882-0.081,3.774,0.043,5.659
						c0.215,3.767,0.404,7.545,0.561,11.326l0,0.01c1.28,2.568,2.805,4.523,5.417,4.281c2.119-0.196,4.035-1.772,4.459-3.749
						c0.796-3.735,1.469-7.469,2.092-11.212C350.439,388.343,350.72,386.469,351.003,384.595z"/>
				</g>
				<path style="fill:#25506B;" d="M367.532,251.945c-0.884,4.099-1.723,8.743-2.237,15.292c-0.893,11.363-2.413,35.6-3.998,55.575
					c-1.585,19.975-7.805,77.91-7.805,77.91s-11.384,1.477-18.143-0.14c0,0-1.648-56.413,0.504-71.248
					c2.152-14.834,0.07-32.632-2.443-55.124c-0.846-7.574-2.928-19.617,3.435-36.211L367.532,251.945z"/>
				<path style="fill:#FFC0A9;" d="M341.32,157.736c12.833-0.388,11.677-11.297,11.677-11.297l8.583-0.265l8.583,0.265
					c0,0-1.156,10.909,11.677,11.297c4.17,0.126,12.538,13.671,12.538,13.671h-58.845
					C335.533,171.407,339.401,157.794,341.32,157.736z"/>
				<path style="fill:#FFAF96;" d="M370.573,149.837c0.248,1.017,0.642,2.148,1.277,3.233c-4.019,8.717-15.156,9.823-20.16-0.598
					c0.383-0.644,0.661-1.638,0.86-2.635H370.573z"/>
				<path style="fill:#FFC0A9;" d="M381.523,119.38c-1.185-12.622-10.419-19.867-19.505-19.72
					c-9.086,0.145-18.141,7.683-19.018,20.339c-0.514,7.413,1.1,15.401,2.263,19.994c0.692,2.733,1.985,5.216,3.779,7.177
					c4.111,4.495,9.453,8.079,13.651,8.011c4.199-0.067,9.45-3.821,13.451-8.446c1.746-2.018,2.978-4.542,3.603-7.296
					C380.797,134.811,382.217,126.774,381.523,119.38z"/>
				<path style="fill:#FFE79F;" d="M330.428,193.427l-13.665-6.108c3.308-11.989,4.661-19.972,10.078-25.297
					c5.417-5.325,18.355-4.462,18.355-4.462s3.031,9.958,16.473,9.958c13.442,0,16.186-10.005,16.186-10.005
					s13.225-0.816,18.642,4.509c5.417,5.325,8.553,13.308,11.861,25.297l-15.448,6.108l-0.443,55.277c0,0-11.538,4.784-30.798,4.784
					c-24.594,0-28.154-3.952-28.154-3.952L330.428,193.427z"/>
				<path style="fill:#193441;" d="M371.061,129.709c0,0.829,0.672,1.501,1.5,1.501c0.829,0,1.501-0.672,1.501-1.501
					c0-0.829-0.672-1.501-1.501-1.501C371.733,128.208,371.061,128.88,371.061,129.709z"/>
				<path style="fill:#193441;" d="M353.548,129.709c0,0.829-0.672,1.501-1.501,1.501c-0.829,0-1.5-0.672-1.5-1.501
					c0-0.829,0.672-1.501,1.5-1.501C352.877,128.208,353.548,128.88,353.548,129.709z"/>
				<path style="fill:#FFFFFF;" d="M367.23,141.256c0.76,0,1.264,0.855,0.832,1.48c-1.266,1.828-3.369,3.029-5.762,3.029
					c-2.35,0-4.421-1.158-5.693-2.931c-0.473-0.66-0.04-1.578,0.772-1.578H367.23z"/>
				<g>
					<path style="fill:#FFAF8A;" d="M369.234,136.012c0,1.353,1.416,2.45,3.163,2.45c1.747,0,3.163-1.097,3.163-2.45
						c0-1.353-1.416-2.45-3.163-2.45C370.65,133.562,369.234,134.659,369.234,136.012z"/>
				</g>
				<path style="fill:#FFAF8A;" d="M355.376,136.012c0,1.353-1.416,2.45-3.163,2.45c-1.747,0-3.163-1.097-3.163-2.45
					c0-1.353,1.416-2.45,3.163-2.45C353.96,133.562,355.376,134.659,355.376,136.012z"/>
				<path style="fill:#4B78FF;" d="M383.495,108.439c-0.252-1.196-0.853-2.081-1.59-2.727c-0.069-1.18-0.473-2.261-1.474-2.855
					c-0.973-0.578-2.179-0.505-3.262-0.835c-1.875-0.57-3.14-2.255-4.636-3.522c-3.117-2.64-7.631-3.519-11.51-2.24
					c-2.217,0.731-4.183,2.095-6.405,2.81c-1.693,0.545-5.119,0.955-6.817,1.487c-2.423,0.759-3.544,2.251-4.071,4.187
					c-1.186,0.601-2.968,1.721-3.383,3.695c-0.717,3.404,2.323,7.727,1.816,11.036c-0.761,4.968,0.518,10.93,1.265,11.025
					c0.747,0.094,1.721-3.965,1.721-6.743c0-1.749,2.069-4.018,3.657-6.312c1.456,0.819,3.249,2.013,4.804,2.37
					c1.815,0.416,3.015-1.539,4.742-2.233c2.095-0.842,4.219-0.633,6.727,0.89c1.93,1.172,4.114,2.703,7.348-0.416
					c0.747-0.721,1.67-0.991,2.607-1.07c1.625,2.449,3.897,4.906,3.897,6.772c0,2.778,0.264,6,1.762,6.882
					c1.498,0.882,1.307-4.647,1.307-6.882v-0.987C382,114.709,384.212,111.843,383.495,108.439z"/>
			</g>
		</g>
		<g>
			<polyline style="fill:none;stroke:#FF9800;stroke-miterlimit:10;" points="290.5,201 290.5,214.5 286,214.5 			"/>
			<polyline style="fill:none;stroke:#FF9800;stroke-miterlimit:10;" points="284.5,197 284.5,214.5 280,214.5 			"/>
			<path style="fill:#FFC366;" d="M309.743,191.824L309.743,191.824c-3.25,8.706-12.559,13.543-21.551,11.197l0,0
				c-8.371-2.184-14.586-9.218-15.722-17.794l-0.598-4.518c-0.759-5.733,3.072-11.068,8.747-12.18l0,0
				c5.758-1.128,11.382,2.483,12.75,8.189l4.698,19.579L309.743,191.824z"/>
			<g>
				<path style="fill:#FFE79F;" d="M279.066,184.235c-0.334,1.182,0.633,2.488,2.158,2.919c1.525,0.431,3.032-0.178,3.366-1.36
					c0.333-1.181-0.633-2.488-2.158-2.919C280.906,182.444,279.399,183.053,279.066,184.235z"/>
				<path style="fill:#193441;" d="M281.995,179.437c-0.278,0.699,0.063,1.49,0.761,1.769c0.699,0.278,1.49-0.063,1.769-0.761
					c0.278-0.699-0.063-1.491-0.761-1.769C283.065,178.398,282.273,178.738,281.995,179.437z"/>
			</g>
			<path style="fill:#FF9800;" d="M271.776,177.998c0,0,2.557,1.194,0.388,4.022l-3.786,0.526l1.205-2.046l-1.956-3.504
				L271.776,177.998z"/>
		</g>
	</g>
	<g>
		
			<text transform="matrix(0 -1 1 0 78.6107 433.8755)" style="fill:#91BAEE; font-family:'Quicksand-Bold'; font-size:5px; letter-spacing:1;">YOUR MESSAGE HERE</text>
		<g>
			<text transform="matrix(1 0 0 1 76.666 98.5767)"><tspan x="0" y="0" style="fill:#193441; font-family:'OstrichSans-Black'; font-size:43px;">co</tspan><tspan x="35.818" y="0" style="fill:#193441; font-family:'OstrichSans-Black'; font-size:43px; letter-spacing:-1;">n</tspan><tspan x="52.373" y="0" style="fill:#193441; font-family:'OstrichSans-Black'; font-size:43px; letter-spacing:-5;">t</tspan><tspan x="67.036" y="0" style="fill:#193441; font-family:'OstrichSans-Black'; font-size:43px;">a</tspan><tspan x="85.827" y="0" style="fill:#193441; font-family:'OstrichSans-Black'; font-size:43px;">c</tspan><tspan x="101.65" y="0" style="fill:#193441; font-family:'OstrichSans-Black'; font-size:43px; letter-spacing:-5;">t</tspan><tspan x="116.313" y="0" style="fill:#193441; font-family:'OstrichSans-Black'; font-size:43px;"> </tspan><tspan x="128.697" y="0" style="fill:#193441; font-family:'OstrichSans-Black'; font-size:43px;">us</tspan></text>
			<text transform="matrix(1 0 0 1 75.7388 121.5869)" style="fill:#91BAEE; font-family:'Quicksand-Bold'; font-size:12px;">YOUR MESSAGE HERE</text>
			<rect x="75.666" y="136.385" style="fill:none;" width="181.001" height="36.945"/>
			<text transform="matrix(1 0 0 1 75.6658 140.0944)"><tspan x="0" y="0" style="fill:#475D67; font-family:'Montserrat-Regular'; font-size:5px;">Lorem ipsum dolor sit amet, consectetur adipiscing elit. Nullam </tspan><tspan x="0" y="10.113" style="fill:#475D67; font-family:'Montserrat-Regular'; font-size:5px;">tincidunt, enim at rhoncus ullamcorper, dolor nisl dignissim </tspan><tspan x="0" y="20.227" style="fill:#475D67; font-family:'Montserrat-Regular'; font-size:5px;">ipsum, sed molestie velit arcu vitae ipsum. Vestibulum sagittis sit </tspan><tspan x="0" y="30.34" style="fill:#475D67; font-family:'Montserrat-Regular'; font-size:5px;">amet nibh sit amet lacinia. </tspan></text>
			<g>
				<path style="fill:#D3E3F8;" d="M118.862,199.305H81.684c-3.876,0-7.018-3.142-7.018-7.018l0,0c0-3.876,3.142-7.018,7.018-7.018
					h37.179c3.876,0,7.018,3.142,7.018,7.018l0,0C125.88,196.164,122.738,199.305,118.862,199.305z"/>
				<text transform="matrix(1 0 0 1 83.5357 193.9429)" style="fill:#193441; font-family:'Quicksand-Bold'; font-size:5px;">READ MORE</text>
			</g>
		</g>
		<line style="fill:none;stroke:#FFDBA3;stroke-miterlimit:10;" x1="52.5" y1="0" x2="52.5" y2="500"/>
		<g>
			<path style="fill:#FFC366;" d="M52.5,134.985c-2.718,0-4.929-2.211-4.929-4.929c0-2.718,2.211-4.929,4.929-4.929
				s4.929,2.211,4.929,4.929C57.429,132.774,55.218,134.985,52.5,134.985z"/>
			<path style="fill:#FFFFFF;" d="M52.5,125.919c2.285,0,4.137,1.852,4.137,4.137c0,2.285-1.852,4.137-4.137,4.137
				s-4.137-1.852-4.137-4.137C48.363,127.771,50.215,125.919,52.5,125.919 M52.5,124.335c-3.154,0-5.721,2.566-5.721,5.721
				c0,3.154,2.566,5.721,5.721,5.721s5.721-2.566,5.721-5.721C58.221,126.902,55.654,124.335,52.5,124.335L52.5,124.335z"/>
		</g>
	</g>
</g>
<g id="DESIGNED_BY_FREEPIK">
	<g>
		<g id="XMLID_319_">
			<g id="XMLID_338_">
				<path id="XMLID_346_" style="fill:#1D262D;" d="M385.104,463.454c-0.432,0.443-0.803,0.931-1.108,1.453l-0.465-0.241
					c-0.067-0.298-0.349-0.503-0.659-0.466c-0.331,0.039-0.568,0.339-0.529,0.67c0.039,0.331,0.339,0.568,0.67,0.529
					c0.066-0.008,0.127-0.026,0.184-0.052l0.451,0.234c-0.251,0.554-0.433,1.139-0.539,1.744l0.746,0.132
					c0.23-1.306,0.85-2.507,1.792-3.473L385.104,463.454z"/>
				<path id="XMLID_345_" style="fill:#1D262D;" d="M390.592,461.152c-0.171,0-0.341,0.006-0.51,0.017l-0.074-0.626
					c0.188-0.149,0.296-0.389,0.266-0.645c-0.046-0.393-0.402-0.674-0.795-0.628c-0.393,0.046-0.674,0.402-0.628,0.795
					c0.03,0.254,0.189,0.461,0.404,0.564l0.074,0.624c-0.714,0.116-1.403,0.332-2.06,0.646l0.327,0.684
					c0.934-0.447,1.942-0.673,2.995-0.673c0.496,0,0.993,0.053,1.475,0.158l0.161-0.741
					C391.692,461.211,391.142,461.152,390.592,461.152z"/>
				<path id="XMLID_344_" style="fill:#1D262D;" d="M397.194,463.699c0.331-0.04,0.566-0.341,0.526-0.672
					c-0.04-0.331-0.341-0.566-0.672-0.526c-0.309,0.038-0.535,0.304-0.53,0.609l-0.416,0.363c-0.418-0.43-0.889-0.813-1.408-1.139
					l-0.404,0.641c1.134,0.715,2.021,1.726,2.563,2.925l0.69-0.313c-0.251-0.554-0.568-1.072-0.942-1.545l0.402-0.351
					C397.065,463.704,397.129,463.707,397.194,463.699z"/>
				<path id="XMLID_343_" style="fill:#1D262D;" d="M390.044,471.36c-0.386,0.023-0.775,0.035-1.157,0.035
					c-0.88,0-1.733-0.061-2.478-0.179c-0.39-0.062-0.846-0.155-1.27-0.292c1.046,1.861,3.069,3.125,5.388,3.125
					c2.855,0,5.262-1.916,5.95-4.504c-0.682,0.449-1.505,0.825-2.459,1.123C392.839,471.035,391.463,471.275,390.044,471.36z"/>
				<path id="XMLID_339_" style="fill:#1D262D;" d="M390.592,462.668c-3.352,0-6.08,2.666-6.08,5.943
					c0,0.426,0.046,0.849,0.137,1.261c0.673,0.483,2.706,0.89,5.348,0.731c2.879-0.173,5.297-0.957,6.672-2.159
					c-0.006-0.195-0.021-0.39-0.045-0.582C396.244,464.901,393.65,462.668,390.592,462.668z M388.432,469.183
					c-1.02,0-1.85-0.83-1.85-1.85c0-1.02,0.83-1.85,1.85-1.85c1.02,0,1.85,0.83,1.85,1.85
					C390.282,468.353,389.452,469.183,388.432,469.183z M393.17,468.275c-0.75,0-1.36-0.61-1.36-1.36s0.61-1.361,1.36-1.361
					c0.75,0,1.361,0.61,1.361,1.361S393.92,468.275,393.17,468.275z"/>
			</g>
			<path id="XMLID_336_" style="fill:#1D262D;" d="M406.595,464.535c-0.295-0.116-0.805-0.309-1.382-0.237
				c-0.551,0.069-0.844,0.341-0.844,1.007v0.866h2.228v1.717h-2.228v5.455h-1.932v-5.455h-1.34v-1.717h1.34v-0.888
				c0-1.68,0.896-2.783,2.568-2.783c0.643,0,1.157,0.122,1.59,0.308L406.595,464.535z"/>
			<path id="XMLID_334_" style="fill:#1D262D;" d="M411.298,467.867c-0.177-0.03-0.358-0.046-0.526-0.046
				c-0.895,0-1.51,0.548-1.51,1.613v3.908h-1.932v-7.172h1.873v0.785c0.451-0.673,1.14-0.977,2.021-0.977
				c0.414,0,0.848,0.128,1.094,0.337L411.298,467.867z"/>
			<path id="XMLID_331_" style="fill:#1D262D;" d="M418.965,469.745c0,0.222-0.015,0.489-0.037,0.651h-5.085
				c0.207,1.036,0.933,1.488,1.843,1.488c0.622,0,1.295-0.252,1.813-0.688l1.133,1.243c-0.814,0.748-1.85,1.088-3.057,1.088
				c-2.198,0-3.723-1.495-3.723-3.753c0-2.258,1.48-3.797,3.627-3.797C417.544,465.978,418.958,467.51,418.965,469.745z
				 M413.851,469.079h3.175c-0.177-0.918-0.733-1.436-1.562-1.436C414.554,467.643,414.021,468.191,413.851,469.079z"/>
			<path id="XMLID_328_" style="fill:#1D262D;" d="M426.618,469.745c0,0.222-0.015,0.489-0.037,0.651h-5.085
				c0.207,1.036,0.932,1.488,1.843,1.488c0.622,0,1.295-0.252,1.814-0.688l1.132,1.243c-0.814,0.748-1.85,1.088-3.057,1.088
				c-2.198,0-3.723-1.495-3.723-3.753c0-2.258,1.48-3.797,3.627-3.797C425.197,465.978,426.611,467.51,426.618,469.745z
				 M421.504,469.079h3.175c-0.178-0.918-0.733-1.436-1.562-1.436C422.207,467.643,421.674,468.191,421.504,469.079z"/>
			<path id="XMLID_325_" style="fill:#1D262D;" d="M434.964,469.753c0,2.154-1.495,3.775-3.471,3.775
				c-0.962,0-1.643-0.378-2.109-0.933v3.708h-1.924V466.17h1.887v0.792c0.466-0.585,1.155-0.984,2.139-0.984
				C433.469,465.978,434.964,467.599,434.964,469.753z M429.287,469.753c0,1.132,0.747,1.976,1.843,1.976
				c1.14,0,1.85-0.881,1.85-1.976c0-1.095-0.711-1.976-1.85-1.976C430.035,467.776,429.287,468.62,429.287,469.753z"/>
			<path id="XMLID_322_" style="fill:#1D262D;" d="M438.067,463.824c0,0.696-0.54,1.229-1.236,1.229
				c-0.696,0-1.229-0.533-1.229-1.229c0-0.696,0.533-1.243,1.229-1.243C437.527,462.581,438.067,463.128,438.067,463.824z
				 M437.809,473.342h-1.932v-7.172h1.932V473.342z"/>
			<path id="XMLID_320_" style="fill:#1D262D;" d="M441.032,468.724l2.702-2.554h2.368l-3.479,3.375l3.501,3.797h-2.376
				l-2.716-2.901v2.901H439.1v-10.658h1.932V468.724z"/>
		</g>
		<g>
			<path style="fill:#1D262D;" d="M309.412,473.277v-1.055c-0.527,0.718-1.391,1.23-2.387,1.23c-1.846,0-3.149-1.406-3.149-3.706
				c0-2.256,1.289-3.721,3.149-3.721c0.952,0,1.816,0.469,2.387,1.245v-3.765h1.099v9.77H309.412z M309.412,471.358v-3.208
				c-0.395-0.615-1.245-1.143-2.124-1.143c-1.421,0-2.27,1.172-2.27,2.739c0,1.567,0.85,2.724,2.27,2.724
				C308.168,472.472,309.017,471.974,309.412,471.358z"/>
			<path style="fill:#1D262D;" d="M311.932,469.733c0-2.051,1.465-3.706,3.486-3.706c2.139,0,3.398,1.67,3.398,3.794v0.279h-5.727
				c0.088,1.333,1.026,2.446,2.549,2.446c0.806,0,1.626-0.322,2.182-0.894l0.527,0.718c-0.703,0.703-1.655,1.084-2.812,1.084
				C313.44,473.453,311.932,471.944,311.932,469.733z M315.404,466.935c-1.509,0-2.256,1.274-2.315,2.358h4.643
				C317.718,468.238,317.015,466.935,315.404,466.935z"/>
			<path style="fill:#1D262D;" d="M319.607,472.34l0.571-0.791c0.469,0.542,1.362,1.011,2.329,1.011c1.084,0,1.67-0.513,1.67-1.216
				c0-1.714-4.38-0.659-4.38-3.281c0-1.098,0.952-2.036,2.636-2.036c1.201,0,2.051,0.454,2.622,1.025l-0.513,0.762
				c-0.424-0.513-1.201-0.894-2.109-0.894c-0.967,0-1.567,0.483-1.567,1.113c0,1.552,4.38,0.527,4.38,3.281
				c0,1.187-0.952,2.138-2.783,2.138C321.306,473.453,320.325,473.102,319.607,472.34z"/>
			<path style="fill:#1D262D;" d="M326.477,464.459c0-0.41,0.337-0.747,0.732-0.747c0.41,0,0.747,0.337,0.747,0.747
				c0,0.41-0.337,0.732-0.747,0.732C326.814,465.192,326.477,464.87,326.477,464.459z M326.667,473.277v-7.075h1.099v7.075H326.667z
				"/>
			<path style="fill:#1D262D;" d="M329.582,475.094l0.556-0.82c0.586,0.703,1.289,0.967,2.3,0.967c1.172,0,2.27-0.571,2.27-2.124
				v-1.011c-0.513,0.718-1.377,1.26-2.373,1.26c-1.845,0-3.149-1.377-3.149-3.662c0-2.27,1.289-3.676,3.149-3.676
				c0.952,0,1.802,0.469,2.373,1.245v-1.069h1.099v6.87c0,2.344-1.641,3.076-3.369,3.076
				C331.237,476.148,330.417,475.914,329.582,475.094z M334.709,471.241v-3.091c-0.381-0.615-1.23-1.143-2.109-1.143
				c-1.421,0-2.27,1.128-2.27,2.695c0,1.553,0.849,2.695,2.27,2.695C333.478,472.398,334.328,471.857,334.709,471.241z"/>
			<path style="fill:#1D262D;" d="M342.413,473.277v-4.629c0-1.245-0.63-1.641-1.582-1.641c-0.865,0-1.685,0.527-2.095,1.099v5.17
				h-1.099v-7.075h1.099v1.025c0.498-0.586,1.465-1.201,2.519-1.201c1.48,0,2.256,0.747,2.256,2.285v4.966H342.413z"/>
			<path style="fill:#1D262D;" d="M344.932,469.733c0-2.051,1.465-3.706,3.486-3.706c2.138,0,3.398,1.67,3.398,3.794v0.279h-5.727
				c0.088,1.333,1.025,2.446,2.549,2.446c0.806,0,1.626-0.322,2.183-0.894l0.527,0.718c-0.703,0.703-1.655,1.084-2.812,1.084
				C346.441,473.453,344.932,471.944,344.932,469.733z M348.404,466.935c-1.509,0-2.256,1.274-2.314,2.358h4.643
				C350.718,468.238,350.015,466.935,348.404,466.935z"/>
			<path style="fill:#1D262D;" d="M358.35,473.277v-1.055c-0.527,0.718-1.392,1.23-2.388,1.23c-1.846,0-3.149-1.406-3.149-3.706
				c0-2.256,1.289-3.721,3.149-3.721c0.952,0,1.817,0.469,2.388,1.245v-3.765h1.098v9.77H358.35z M358.35,471.358v-3.208
				c-0.396-0.615-1.245-1.143-2.124-1.143c-1.421,0-2.27,1.172-2.27,2.739c0,1.567,0.849,2.724,2.27,2.724
				C357.105,472.472,357.954,471.974,358.35,471.358z"/>
			<path style="fill:#1D262D;" d="M364.692,473.277v-9.77h1.099v3.765c0.572-0.776,1.421-1.245,2.388-1.245
				c1.845,0,3.149,1.465,3.149,3.721c0,2.299-1.304,3.706-3.149,3.706c-0.996,0-1.86-0.513-2.388-1.23v1.055H364.692z
				 M367.9,472.472c1.436,0,2.286-1.157,2.286-2.724c0-1.568-0.85-2.739-2.286-2.739c-0.864,0-1.728,0.527-2.109,1.143v3.208
				C366.171,471.974,367.036,472.472,367.9,472.472z"/>
			<path style="fill:#1D262D;" d="M372.529,475.05c0.161,0.073,0.425,0.117,0.601,0.117c0.483,0,0.806-0.161,1.055-0.747
				l0.469-1.069l-2.959-7.148h1.187l2.358,5.8l2.344-5.8h1.201l-3.545,8.51c-0.425,1.025-1.143,1.421-2.08,1.435
				c-0.234,0-0.601-0.044-0.806-0.103L372.529,475.05z"/>
		</g>
	</g>
</g>
</svg>
